<?xml version="1.0" encoding="UTF-8"?>
<svg id="Layer_1" data-name="Layer 1" xmlns="http://www.w3.org/2000/svg" viewBox="0 0 450.78 331.17">
  <defs>
    <style>
      .cls-1 {
        fill: #fff;
        stroke-width: 0px;
      }
    </style>
  </defs>
  <polygon class="cls-1" points="106.93 18.61 17.74 107.8 106.93 196.98 106.93 214.73 0 107.8 106.93 .87 106.93 18.61"/>
  <polygon class="cls-1" points="343.85 196.97 433.03 107.79 343.85 18.61 343.85 .86 450.78 107.79 343.85 214.72 343.85 196.97"/>
  <path class="cls-1" d="M332.34,213.75c-.12,0-.24,0-.36,0-14.01,0-27.38-3.11-39.75-9.25-11.05-5.48-21.62-13.55-31.42-23.99-12-12.77-21.93-28.06-30.15-42.9,3.56-6.69,6.77-13.2,9.66-19.29,20.67,40.53,48.09,77.87,91.67,77.87.1,0,.19,0,.29,0l.07,17.57Z"/>
  <path class="cls-1" d="M220.78,76.76c-1.45,3.13-2.89,6.29-4.34,9.48-1.73,3.79-3.5,7.69-5.32,11.6-.26-.56-.51-1.12-.77-1.68-20.78-45.63-35.79-78.59-91.88-78.59V0c30.85,0,53.61,8.71,71.61,27.42,12.93,13.43,21.99,30.69,30.69,49.34Z"/>
  <path class="cls-1" d="M118.8,214.76c-.12,0-.24,0-.36,0l.07-17.57c.1,0,.19,0,.29,0,48.67,0,77.17-46.56,98.65-92.13,2.41-5.11,4.74-10.23,6.99-15.18,10.58-23.22,20.57-45.16,36.26-61.46,18-18.7,40.76-27.42,71.61-27.42v17.57c-56.09,0-71.1,32.97-91.88,78.59-2.28,5-4.63,10.17-7.09,15.38-10.04,21.3-24.03,48.39-43.36,68.98-9.8,10.44-20.37,18.51-31.42,23.99-12.37,6.13-25.74,9.24-39.75,9.24Z"/>
  <g>
    <path class="cls-1" d="M5.89,298.14v-60.83h19.5c4.33,0,8.08.75,11.25,2.25s5.62,3.64,7.38,6.42c1.75,2.78,2.62,6.06,2.62,9.83s-.96,7.47-2.88,10.58c-1.92,3.11-4.51,5.36-7.79,6.75l11.5,25h-13.58l-9.83-23h-5.83v23H5.89ZM18.22,264.3h7.17c2.78,0,4.93-.69,6.46-2.08,1.53-1.39,2.29-3.33,2.29-5.83s-.76-4.64-2.29-6.08c-1.53-1.44-3.68-2.17-6.46-2.17h-7.17v16.17Z"/>
    <path class="cls-1" d="M75.47,298.97c-4.06,0-7.6-.76-10.62-2.29-3.03-1.53-5.36-3.67-7-6.42-1.64-2.75-2.46-5.96-2.46-9.62v-10.83c0-3.67.82-6.88,2.46-9.62,1.64-2.75,3.97-4.89,7-6.42,3.03-1.53,6.57-2.29,10.62-2.29s7.57.76,10.54,2.29c2.97,1.53,5.28,3.67,6.92,6.42,1.64,2.75,2.46,5.96,2.46,9.62v8.5h-28.08v2.33c0,2.89.68,5,2.04,6.33,1.36,1.33,3.4,2,6.12,2,1.78,0,3.33-.28,4.67-.83,1.33-.55,2.11-1.39,2.33-2.5h12.25c-.89,4-3.08,7.22-6.58,9.67-3.5,2.45-7.72,3.67-12.67,3.67ZM60.39,243.55v-9.17h30v9.17h-30ZM67.31,269.8v1.08l16.17-.17v-1.08c0-2.83-.65-5.03-1.96-6.58-1.31-1.55-3.32-2.33-6.04-2.33s-4.76.81-6.12,2.42c-1.36,1.61-2.04,3.83-2.04,6.67Z"/>
    <path class="cls-1" d="M129.97,298.14c-4.67,0-8.33-1.33-11-4-2.67-2.67-4-6.33-4-11v-19.58h-12.33v-11.25h12.33v-12.92h12.5v12.92h17.92v11.25h-17.92v19.17c0,1.22.32,2.22.96,3,.64.78,1.57,1.17,2.79,1.17h13.75v11.25h-15Z"/>
    <path class="cls-1" d="M156.22,298.14v-11.25h15.17v-23.33h-13.5v-11.25h26v34.58h13.17v11.25h-40.83ZM177.06,245.05c-2.28,0-4.1-.58-5.46-1.75-1.36-1.17-2.04-2.75-2.04-4.75s.68-3.58,2.04-4.75c1.36-1.17,3.18-1.75,5.46-1.75s4.1.58,5.46,1.75c1.36,1.17,2.04,2.75,2.04,4.75s-.68,3.58-2.04,4.75c-1.36,1.17-3.18,1.75-5.46,1.75Z"/>
    <path class="cls-1" d="M226.14,298.97c-4.06,0-7.61-.76-10.67-2.29-3.06-1.53-5.42-3.67-7.08-6.42-1.67-2.75-2.5-5.96-2.5-9.62v-10.83c0-3.72.83-6.94,2.5-9.67,1.67-2.72,4.03-4.85,7.08-6.38,3.05-1.53,6.61-2.29,10.67-2.29,6.05,0,10.89,1.53,14.5,4.58,3.61,3.06,5.53,7.22,5.75,12.5h-12.17c-.17-1.94-.99-3.47-2.46-4.58-1.47-1.11-3.35-1.67-5.62-1.67-2.5,0-4.42.64-5.75,1.92-1.33,1.28-2,3.14-2,5.58v10.83c0,2.39.67,4.24,2,5.54,1.33,1.31,3.25,1.96,5.75,1.96,2.28,0,4.15-.54,5.62-1.62,1.47-1.08,2.29-2.62,2.46-4.62h12.17c-.22,5.28-2.14,9.45-5.75,12.5-3.61,3.06-8.45,4.58-14.5,4.58Z"/>
    <path class="cls-1" d="M256.22,298.14v-11.25h15.17v-23.33h-13.5v-11.25h26v34.58h13.17v11.25h-40.83ZM262.06,243.55v-9.17h30v9.17h-30Z"/>
    <path class="cls-1" d="M317.64,298.14l-15.25-45.83h12.92l8,25.75c.5,1.56.96,3.17,1.38,4.83.42,1.67.68,3.22.79,4.67.11-1.44.36-3,.75-4.67.39-1.67.8-3.25,1.25-4.75l7.83-25.83h13.08l-15.08,45.83h-15.67Z"/>
    <path class="cls-1" d="M356.22,298.14v-11.25h15.17v-23.33h-13.5v-11.25h26v34.58h13.17v11.25h-40.83ZM377.05,245.05c-2.28,0-4.1-.58-5.46-1.75-1.36-1.17-2.04-2.75-2.04-4.75s.68-3.58,2.04-4.75c1.36-1.17,3.18-1.75,5.46-1.75s4.1.58,5.46,1.75c1.36,1.17,2.04,2.75,2.04,4.75s-.68,3.58-2.04,4.75-3.18,1.75-5.46,1.75Z"/>
    <path class="cls-1" d="M423.47,298.97c-3.78,0-7.08-.6-9.92-1.79-2.83-1.19-5.04-2.85-6.62-4.96-1.58-2.11-2.38-4.58-2.38-7.42h12.25c0,1.56.58,2.72,1.75,3.5,1.17.78,2.8,1.17,4.92,1.17h3.67c2.28,0,4.04-.39,5.29-1.17,1.25-.78,1.88-1.89,1.88-3.33s-.5-2.4-1.5-3.04c-1-.64-2.53-1.07-4.58-1.29l-10.5-1.25c-4.06-.5-7.17-2.01-9.33-4.54-2.17-2.53-3.25-5.68-3.25-9.46,0-9.28,5.94-13.92,17.83-13.92h3.92c5.61,0,10.08,1.22,13.42,3.67,3.33,2.45,5,5.72,5,9.83h-12.25c0-1.33-.54-2.36-1.62-3.08-1.08-.72-2.6-1.08-4.54-1.08h-3.92c-1.95,0-3.42.36-4.42,1.08-1,.72-1.5,1.72-1.5,3s.49,2.14,1.46,2.58c.97.45,2.35.78,4.12,1l10,1.25c4.5.56,7.89,2.14,10.17,4.75,2.28,2.61,3.42,6.06,3.42,10.33,0,4.5-1.61,7.99-4.83,10.46-3.22,2.47-7.97,3.71-14.25,3.71h-3.67Z"/>
  </g>
  <g>
    <path class="cls-1" d="M10.43,331.17c-1.59,0-2.98-.3-4.17-.9-1.2-.6-2.12-1.44-2.79-2.51-.66-1.08-.99-2.33-.99-3.77v-10.11c0-1.46.33-2.72.99-3.78.66-1.07,1.59-1.9,2.79-2.5,1.2-.6,2.59-.9,4.17-.9s3.01.3,4.19.9c1.18.6,2.11,1.43,2.77,2.5.66,1.07.99,2.33.99,3.78h-4.89c0-.96-.27-1.68-.8-2.18-.53-.5-1.29-.75-2.27-.75s-1.73.25-2.27.75c-.53.5-.8,1.23-.8,2.18v10.11c0,.93.27,1.66.8,2.17.53.51,1.29.77,2.27.77s1.73-.25,2.27-.77c.53-.51.8-1.23.8-2.17h4.89c0,1.43-.33,2.69-.99,3.77-.66,1.08-1.59,1.91-2.77,2.51-1.19.6-2.58.9-4.19.9Z"/>
    <path class="cls-1" d="M22.24,330.84v-4.4h5.94v-9.13h-5.28v-4.4h10.17v13.53h5.15v4.4h-15.98ZM30.39,310.07c-.89,0-1.6-.23-2.14-.68-.53-.46-.8-1.08-.8-1.86s.27-1.4.8-1.86c.53-.46,1.24-.68,2.14-.68s1.6.23,2.14.68c.53.46.8,1.08.8,1.86s-.27,1.4-.8,1.86c-.53.46-1.24.68-2.14.68Z"/>
    <path class="cls-1" d="M51.1,330.84c-1.83,0-3.26-.52-4.3-1.57-1.04-1.04-1.57-2.48-1.57-4.3v-7.66h-4.83v-4.4h4.83v-5.05h4.89v5.05h7.01v4.4h-7.01v7.5c0,.48.12.87.38,1.17.25.3.61.46,1.09.46h5.38v4.4h-5.87Z"/>
    <path class="cls-1" d="M61.37,330.84v-4.4h5.94v-9.13h-5.28v-4.4h10.17v13.53h5.15v4.4h-15.98ZM69.52,310.07c-.89,0-1.6-.23-2.14-.68-.53-.46-.8-1.08-.8-1.86s.27-1.4.8-1.86c.53-.46,1.24-.68,2.14-.68s1.6.23,2.14.68c.53.46.8,1.08.8,1.86s-.27,1.4-.8,1.86c-.53.46-1.24.68-2.14.68Z"/>
    <path class="cls-1" d="M80.93,330.84v-4.24l8.87-9.46h-8.54v-4.24h14.32v4.24l-8.87,9.46h9.23v4.24h-15Z"/>
    <path class="cls-1" d="M108.03,331.17c-1.59,0-2.97-.3-4.16-.9-1.19-.6-2.1-1.44-2.74-2.51-.64-1.08-.96-2.33-.96-3.77v-4.24c0-1.43.32-2.69.96-3.77.64-1.08,1.55-1.91,2.74-2.51,1.18-.6,2.57-.9,4.16-.9s2.96.3,4.12.9c1.16.6,2.06,1.43,2.71,2.51.64,1.08.96,2.33.96,3.77v3.33h-10.99v.91c0,1.13.27,1.96.8,2.48.53.52,1.33.78,2.4.78.7,0,1.3-.11,1.83-.33.52-.22.83-.54.91-.98h4.79c-.35,1.57-1.21,2.83-2.58,3.78s-3.02,1.43-4.96,1.43ZM104.83,319.75v.42l6.33-.07v-.42c0-1.11-.26-1.97-.77-2.58-.51-.61-1.3-.91-2.36-.91s-1.86.32-2.4.95c-.53.63-.8,1.5-.8,2.61Z"/>
    <path class="cls-1" d="M119.93,330.84v-17.94h4.73v3.26c.26-1.09.82-1.96,1.68-2.61.86-.65,1.91-.98,3.15-.98,1.74,0,3.14.61,4.19,1.83,1.05,1.22,1.58,2.84,1.58,4.86v11.58h-4.89v-11.09c0-.93-.24-1.66-.73-2.17-.49-.51-1.17-.77-2.04-.77s-1.55.26-2.04.77c-.49.51-.73,1.23-.73,2.17v11.09h-4.89Z"/>
    <path class="cls-1" d="M166.69,331.17c-1.59,0-2.97-.3-4.14-.9-1.17-.6-2.08-1.44-2.72-2.51-.64-1.08-.96-2.33-.96-3.77v-4.24c0-1.43.32-2.69.96-3.77.64-1.08,1.55-1.91,2.72-2.51,1.17-.6,2.55-.9,4.14-.9s2.99.3,4.16.9c1.16.6,2.06,1.43,2.71,2.51.64,1.08.96,2.33.96,3.77v4.24c0,1.43-.32,2.69-.96,3.77-.64,1.08-1.54,1.91-2.71,2.51-1.16.6-2.55.9-4.16.9ZM166.69,326.93c.96,0,1.68-.25,2.19-.77.5-.51.75-1.23.75-2.17v-4.24c0-.96-.25-1.68-.75-2.18-.5-.5-1.23-.75-2.19-.75s-1.66.25-2.17.75c-.51.5-.77,1.23-.77,2.18v4.24c0,.93.25,1.66.77,2.17.51.51,1.23.77,2.17.77Z"/>
    <path class="cls-1" d="M182.67,330.84v-11.09h-4.76v-4.4h4.76v-2.77c0-1.67.57-3.02,1.71-4.03,1.14-1.01,2.64-1.52,4.48-1.52h5.25v4.24h-5.09c-.44,0-.79.14-1.06.41-.27.27-.41.62-.41,1.06v2.61h6.55v4.4h-6.55v11.09h-4.89Z"/>
    <path class="cls-1" d="M227.18,330.84c-1.83,0-3.26-.52-4.3-1.57-1.04-1.04-1.57-2.48-1.57-4.3v-7.66h-4.83v-4.4h4.83v-5.05h4.89v5.05h7.01v4.4h-7.01v7.5c0,.48.12.87.38,1.17.25.3.61.46,1.09.46h5.38v4.4h-5.87Z"/>
    <path class="cls-1" d="M237.32,330.84v-23.8h4.89v5.87l-.16,3.23c.28-1.09.85-1.95,1.71-2.59.86-.64,1.9-.96,3.11-.96,1.74,0,3.14.61,4.19,1.83,1.05,1.22,1.58,2.84,1.58,4.86v11.58h-4.89v-11.09c0-.93-.24-1.66-.73-2.17-.49-.51-1.17-.77-2.04-.77s-1.55.26-2.04.77c-.49.51-.73,1.23-.73,2.17v11.09h-4.89Z"/>
    <path class="cls-1" d="M264.55,331.17c-1.59,0-2.97-.3-4.16-.9-1.18-.6-2.1-1.44-2.74-2.51-.64-1.08-.96-2.33-.96-3.77v-4.24c0-1.43.32-2.69.96-3.77.64-1.08,1.55-1.91,2.74-2.51,1.19-.6,2.57-.9,4.16-.9s2.96.3,4.12.9,2.07,1.43,2.71,2.51c.64,1.08.96,2.33.96,3.77v3.33h-10.99v.91c0,1.13.27,1.96.8,2.48.53.52,1.33.78,2.4.78.7,0,1.3-.11,1.83-.33.52-.22.83-.54.91-.98h4.79c-.35,1.57-1.21,2.83-2.58,3.78-1.37.96-3.02,1.43-4.96,1.43ZM261.36,319.75v.42l6.33-.07v-.42c0-1.11-.26-1.97-.77-2.58-.51-.61-1.3-.91-2.36-.91s-1.86.32-2.4.95c-.53.63-.8,1.5-.8,2.61Z"/>
    <path class="cls-1" d="M296.48,330.84v-4.4h4.73v-15h-4.73v-4.4h14.35v4.4h-4.73v15h4.73v4.4h-14.35Z"/>
    <path class="cls-1" d="M315.59,330.84v-17.94h4.73v3.26c.26-1.09.82-1.96,1.68-2.61.86-.65,1.91-.98,3.15-.98,1.74,0,3.14.61,4.19,1.83,1.05,1.22,1.58,2.84,1.58,4.86v11.58h-4.89v-11.09c0-.93-.24-1.66-.73-2.17-.49-.51-1.17-.77-2.04-.77s-1.55.26-2.04.77c-.49.51-.73,1.23-.73,2.17v11.09h-4.89Z"/>
    <path class="cls-1" d="M344.57,330.84c-1.83,0-3.26-.52-4.3-1.57s-1.56-2.48-1.56-4.3v-7.66h-4.83v-4.4h4.83v-5.05h4.89v5.05h7.01v4.4h-7.01v7.5c0,.48.12.87.38,1.17s.61.46,1.09.46h5.38v4.4h-5.87Z"/>
    <path class="cls-1" d="M362.38,331.17c-1.59,0-2.97-.3-4.16-.9-1.18-.6-2.1-1.44-2.74-2.51-.64-1.08-.96-2.33-.96-3.77v-4.24c0-1.43.32-2.69.96-3.77.64-1.08,1.55-1.91,2.74-2.51,1.19-.6,2.57-.9,4.16-.9s2.96.3,4.12.9,2.07,1.43,2.71,2.51c.64,1.08.96,2.33.96,3.77v3.33h-10.99v.91c0,1.13.27,1.96.8,2.48.53.52,1.33.78,2.4.78.7,0,1.3-.11,1.83-.33.52-.22.83-.54.91-.98h4.79c-.35,1.57-1.21,2.83-2.58,3.78-1.37.96-3.02,1.43-4.96,1.43ZM359.18,319.75v.42l6.33-.07v-.42c0-1.11-.26-1.97-.77-2.58-.51-.61-1.3-.91-2.36-.91s-1.86.32-2.4.95c-.53.63-.8,1.5-.8,2.61Z"/>
    <path class="cls-1" d="M374.93,330.84v-17.94h4.73v3.39c.26-1.15.83-2.06,1.71-2.72.88-.66,1.98-.99,3.31-.99,1.8,0,3.22.61,4.24,1.83,1.02,1.22,1.53,2.89,1.53,5.02v1.79h-4.89v-1.47c0-.93-.25-1.66-.75-2.17-.5-.51-1.21-.77-2.12-.77s-1.62.29-2.12.86c-.5.58-.75,1.4-.75,2.46v10.7h-4.89Z"/>
    <path class="cls-1" d="M393.85,330.84v-17.94h4.73v3.26c.26-1.09.82-1.96,1.68-2.61.86-.65,1.91-.98,3.15-.98,1.74,0,3.14.61,4.19,1.83,1.05,1.22,1.58,2.84,1.58,4.86v11.58h-4.89v-11.09c0-.93-.24-1.66-.73-2.17-.49-.51-1.17-.77-2.04-.77s-1.55.26-2.04.77c-.49.51-.73,1.23-.73,2.17v11.09h-4.89Z"/>
    <path class="cls-1" d="M421.07,331.17c-1.59,0-2.97-.3-4.16-.9-1.18-.6-2.1-1.44-2.74-2.51-.64-1.08-.96-2.33-.96-3.77v-4.24c0-1.43.32-2.69.96-3.77.64-1.08,1.55-1.91,2.74-2.51,1.19-.6,2.57-.9,4.16-.9s2.96.3,4.12.9,2.07,1.43,2.71,2.51c.64,1.08.96,2.33.96,3.77v3.33h-10.99v.91c0,1.13.27,1.96.8,2.48.53.52,1.33.78,2.4.78.7,0,1.3-.11,1.83-.33.52-.22.83-.54.91-.98h4.79c-.35,1.57-1.21,2.83-2.58,3.78-1.37.96-3.02,1.43-4.96,1.43ZM417.88,319.75v.42l6.33-.07v-.42c0-1.11-.26-1.97-.77-2.58-.51-.61-1.3-.91-2.36-.91s-1.86.32-2.4.95c-.53.63-.8,1.5-.8,2.61Z"/>
    <path class="cls-1" d="M442.4,330.84c-1.83,0-3.26-.52-4.3-1.57s-1.56-2.48-1.56-4.3v-7.66h-4.83v-4.4h4.83v-5.05h4.89v5.05h7.01v4.4h-7.01v7.5c0,.48.12.87.38,1.17s.61.46,1.09.46h5.38v4.4h-5.87Z"/>
  </g>
</svg>