<?xml version="1.0" encoding="UTF-8"?>
<svg id="Layer_1" data-name="Layer 1" xmlns="http://www.w3.org/2000/svg" version="1.1" viewBox="0 0 450 214.5">
  <g>
    <path d="M298.02,22.98" fill="none" stroke="#000" stroke-miterlimit="10" stroke-width="25"/>
    <path d="M298.02,22.98" fill="#fff" fill-rule="evenodd" stroke-width="0"/>
  </g>
  <polygon points="106.54 18.85 17.36 108.04 106.54 197.22 106.54 214.97 -.39 108.04 106.54 1.11 106.54 18.85" fill="#fff" stroke-width="0"/>
  <polygon points="343.46 197.21 432.64 108.03 343.46 18.85 343.46 1.1 450.39 108.03 343.46 214.96 343.46 197.21" fill="#fff" stroke-width="0"/>
  <path d="M331.95,213.99c-.12,0-.24,0-.36,0-14.01,0-27.38-3.11-39.75-9.25-11.05-5.48-21.62-13.55-31.42-23.99-12-12.77-21.93-28.06-30.15-42.9,3.56-6.69,6.77-13.2,9.66-19.29,20.67,40.53,48.09,77.87,91.67,77.87.1,0,.19,0,.29,0l.07,17.57Z" fill="#fff" stroke-width="0"/>
  <path d="M220.39,77c-1.45,3.13-2.89,6.29-4.34,9.48-1.73,3.79-3.5,7.69-5.32,11.6-.26-.56-.51-1.12-.77-1.68-20.78-45.63-35.79-78.59-91.88-78.59V.24c30.85,0,53.61,8.71,71.61,27.42,12.93,13.43,21.99,30.69,30.69,49.34Z" fill="#fff" stroke-width="0"/>
  <path d="M118.41,215c-.12,0-.24,0-.36,0l.07-17.57c.1,0,.19,0,.29,0,48.67,0,77.17-46.56,98.65-92.13,2.41-5.11,4.74-10.23,6.99-15.18,10.58-23.22,20.57-45.16,36.26-61.46,18-18.7,40.76-27.42,71.61-27.42v17.57c-56.09,0-71.1,32.97-91.88,78.59-2.28,5-4.63,10.17-7.09,15.38-10.04,21.3-24.03,48.39-43.36,68.98-9.8,10.44-20.37,18.51-31.42,23.99-12.37,6.13-25.74,9.24-39.75,9.24Z" fill="#fff" stroke-width="0"/>
</svg>